Coordinates
version=1
nRows=19
nColumns=36
inDegrees=yes

Units are S.I. units (second, meters, Newtons, ...)
If the header above contains a line with 'inDegrees', this indicates whether rotational values are in degrees (yes) or radians (no).

endheader
time	pelvis_tilt	pelvis_list	pelvis_rotation	pelvis_tx	pelvis_ty	pelvis_tz	hip_flexion_r	hip_adduction_r	hip_rotation_r	knee_angle_r	knee_angle_r_beta	ankle_angle_r	subtalar_angle_r	mtp_angle_r	hip_flexion_l	hip_adduction_l	hip_rotation_l	knee_angle_l	knee_angle_l_beta	ankle_angle_l	subtalar_angle_l	mtp_angle_l	lumbar_extension	lumbar_bending	lumbar_rotation	arm_flex_r	arm_add_r	arm_rot_r	elbow_flex_r	pro_sup_r	arm_flex_l	arm_add_l	arm_rot_l	elbow_flex_l	pro_sup_l
      5.21666670	     12.08709771	     -3.26329412	      2.90104637	     -0.19692113	      0.93203073	     -0.17833602	     33.14809306	     -3.18231630	    -11.09693749	      8.43167143	      0.14716043	     -4.82626304	      9.99355333	     -7.49999987	     -3.07177229	      2.94792403	     -8.43636809	     14.00966335	      0.24451475	      7.57358771	      4.36882525	     -7.49999987	    -16.17418088	     -4.22329183	     -6.25340989	     45.16770319	      8.04815083	     55.17798472	    133.01180980	     95.43675262	     37.78783356	      1.44307333	     49.54309708	    137.33729439	     80.20366374
      5.23333330	     12.13917897	     -3.27345638	      3.01619354	     -0.19638304	      0.93194749	     -0.17850093	     33.08349139	     -3.17659083	    -11.03471340	      8.50353751	      0.14841473	     -4.78404762	     10.15108885	     -7.49999987	     -3.10419660	      2.93707386	     -8.25580554	     14.05139310	      0.24524307	      7.74045036	      4.58607473	     -7.49999987	    -16.11619116	     -4.16587132	     -6.32170357	     45.01178031	      7.98324638	     55.14340657	    133.27633879	     97.16395240	     37.81197544	      1.35754596	     49.32933051	    137.25011192	     81.37864988
      5.25000000	     12.24653307	     -3.25767909	      3.19204907	     -0.19544296	      0.93315460	     -0.17922284	     32.85805614	     -3.24068538	    -11.13018700	      8.44878327	      0.14745909	     -4.81876392	     10.16998952	     -7.49999987	     -3.29771258	      2.94861932	     -8.15811016	     13.93070544	      0.24313668	      7.57166658	      4.64668411	     -7.49999987	    -16.11850398	     -4.10040333	     -6.47831023	     44.94531436	      7.99413935	     55.41618486	    133.38995835	     95.53899740	     37.82715766	      1.29684849	     49.35968218	    137.23703478	     80.02726116
      5.26666670	     12.30805688	     -3.27180689	      3.11438208	     -0.19495879	      0.93205933	     -0.17892579	     32.69258151	     -3.14323315	    -11.11560472	      8.26055644	      0.14417391	     -4.77917521	     10.18825691	     -7.49999987	     -3.38948337	      2.90745845	     -8.18326798	     14.03139235	      0.24489400	      7.74049819	      4.79129659	     -7.49999987	    -16.03923023	     -4.17098482	     -6.53191590	     44.88171372	      7.98733133	     55.32482937	    133.37878558	     95.13124257	     37.72722637	      1.16848018	     49.16867212	    137.24834512	     79.57865584
      5.28333330	     12.47134550	     -3.17541229	      3.30967666	     -0.19511680	      0.93081782	     -0.17976903	     32.54895349	     -3.29330404	    -11.31200289	      8.35647432	      0.14584799	     -4.60591682	     10.20865115	     -7.49999987	     -3.13310473	      2.88776375	     -8.32809620	     14.79504748	      0.25822229	      7.79854120	      4.61510122	     -7.49999987	    -16.30665279	     -4.15276754	     -6.42840155	     45.17337513	      7.95064349	     55.59883550	    133.30205661	     93.51908647	     37.79665009	      1.11270396	     49.32034555	    137.14634853	     78.35418512
      5.30000000	     12.55229872	     -3.10617140	      3.28998748	     -0.19501973	      0.93054665	     -0.18003839	     32.54462304	     -3.32986853	    -11.29873455	      8.43500440	      0.14721860	     -4.45567952	     10.17147708	     -7.49999987	     -3.05484759	      2.89471726	     -8.41093486	     15.32475958	      0.26746751	      8.06040604	      4.30591895	     -7.49999987	    -16.35847055	     -4.28112380	     -6.38058487	     45.29918127	      7.91902046	     55.51799263	    133.23076398	     92.03327402	     37.90438534	      1.09886841	     48.99200147	    136.98847306	     76.96173460
      5.31666670	     12.54721978	     -3.08462805	      3.27107036	     -0.19228812	      0.92945210	     -0.17954301	     32.57621148	     -3.33141314	    -11.15313996	      8.45402731	      0.14755061	     -4.46006045	     10.07920764	     -7.49999987	     -3.02373675	      2.89133357	     -8.47856041	     15.55156322	      0.27142598	      8.50376078	      4.58477961	     -7.49999987	    -16.43949455	     -4.26464855	     -6.24835250	     45.43156405	      7.89592052	     55.41583530	    132.88444993	     91.42523659	     37.82252850	      0.98629063	     48.68227604	    136.82099513	     76.40229193
      5.33333330	     12.41195690	     -3.03536844	      3.15085544	     -0.19233605	      0.92756932	     -0.17996472	     32.72841201	     -3.33068475	    -11.07957243	      8.28933566	      0.14467620	     -4.38515542	     10.15787223	     -7.49999987	     -2.65296159	      2.91559609	     -8.56600682	     16.12892905	      0.28150292	      8.88809608	      4.83457489	     -7.49999987	    -16.37610467	     -4.37496126	     -6.14526341	     45.53418407	      7.93550120	     55.07230655	    133.03024570	     96.66545769	     37.63871396	      1.07933483	     48.64922994	    136.84094608	     81.10282232
      5.35000000	     12.30510566	     -2.93548388	      3.21908604	     -0.19242791	      0.92873379	     -0.17892917	     32.87077355	     -3.37647081	    -10.98811484	      8.06869946	      0.14082537	     -4.56869050	     10.34435077	     -7.49999987	     -2.45122855	      2.98192879	     -8.36536711	     16.35650034	      0.28547479	      9.10242659	      4.88109941	     -7.49999987	    -16.33061556	     -4.61258292	     -6.19032264	     45.57585378	      8.00272675	     54.89089289	    132.96007833	     95.05585201	     37.61258630	      0.84123289	     48.37508207	    136.70342116	     79.85134661
      5.36666670	     12.55134904	     -2.80999003	      3.30172506	     -0.19241880	      0.92790741	     -0.17964507	     32.68917115	     -3.43073043	    -10.97517745	      8.07027792	      0.14085292	     -4.54235787	     10.52307927	     -7.49999987	     -2.38533853	      2.98439019	     -8.43468722	     16.93573527	      0.29558434	      9.33185098	      4.98910243	     -7.49999987	    -16.59849958	     -4.65789918	     -6.15848035	     45.82591912	      7.97445880	     54.92323137	    132.63007239	     92.66128656	     37.86067704	      0.74664892	     48.11890628	    136.56513173	     77.91322374
      5.38333330	     12.49515227	     -2.69236972	      3.32711376	     -0.19145761	      0.92390118	     -0.17948921	     32.86842814	     -3.49995067	    -10.98132274	      7.88059752	      0.13754237	     -4.46925011	     10.59112758	     -7.49999987	     -1.91246816	      2.97277782	     -8.45733152	     17.92700252	      0.31288522	      9.76166313	      4.88844585	     -7.49999987	    -16.60128850	     -4.79371546	     -5.92626639	     45.97791651	      7.99201516	     54.66764370	    132.60238636	     96.86338366	     37.94641772	      1.06236693	     48.27670817	    136.66153181	     81.22004196
      5.40000000	     12.59669418	     -2.58308275	      3.58966773	     -0.19272872	      0.92494402	     -0.17950567	     33.01165769	     -3.72141628	    -10.68751710	      7.99165551	      0.13948070	     -4.58677936	     10.42084357	     -7.49999987	     -1.34574843	      3.00478070	     -8.05410528	     18.96758855	      0.33104687	     10.24972779	      4.79325813	     -7.49999987	    -16.91867040	     -4.88127880	     -5.98804551	     46.22865480	      7.98424019	     54.77791586	    132.63294654	     94.12559076	     38.39005249	      1.02006954	     48.08513557	    136.18103898	     79.13162682
      5.41666670	     12.69171104	     -2.28808309	      3.62724539	     -0.19076540	      0.91858277	     -0.17925195	     33.26908407	     -4.00842941	    -10.47915417	      7.91902903	      0.13821313	     -4.40934567	     10.53602121	     -7.49999987	     -0.83534264	      3.14759499	     -8.20328645	     20.33616092	      0.35493297	     11.28902563	      5.02482988	     -7.49999987	    -17.15556393	     -5.11546365	     -5.86114327	     46.27032263	      7.87761590	     54.71998562	    132.41331516	     95.39469455	     38.62248689	      0.83695698	     47.93231444	    135.69215594	     79.94737424
      5.43333330	     12.71982528	     -2.06244974	      3.51786053	     -0.18887399	      0.91688431	     -0.17921752	     33.52952659	     -4.20638209	    -10.47984261	      7.88745449	      0.13766205	     -4.42630010	     10.76092763	     -7.49999987	     -0.18085581	      3.27278928	     -8.12202672	     21.97568872	      0.38354812	     12.05921139	      4.66212530	     -7.49999987	    -17.34978227	     -5.34590120	     -5.84840245	     46.31290838	      7.84030260	     55.25319059	    132.59340148	     94.34449948	     38.57195022	      0.55948891	     48.33666969	    135.52079367	     78.91652548
      5.45000000	     12.94978076	     -1.80033073	      3.37930908	     -0.18945882	      0.91412795	     -0.17842932	     33.62683163	     -4.34481641	    -10.29985961	      7.69505445	      0.13430404	     -4.46304952	     11.09735150	     -7.49999987	      0.47533308	      3.33434534	     -8.42842531	     23.81231274	      0.41560326	     12.92365772	      4.56698020	     -7.49999987	    -17.63933744	     -5.68350800	     -5.71258770	     46.41883164	      7.84963192	     55.27527131	    132.56174281	     97.07770006	     38.74735351	      0.40885905	     48.38661689	    135.26921979	     80.83579833
      5.46666670	     13.26532350	     -1.50415865	      3.31688485	     -0.18824115	      0.90973604	     -0.17812173	     33.63196712	     -4.51690380	    -10.04488554	      7.52731052	      0.13137635	     -4.54909828	     11.44743961	     -7.49999987	      1.09683204	      3.42339525	     -8.70578924	     25.83892276	      0.45097428	     13.66174162	      3.97281108	     -7.49999987	    -18.02646005	     -6.03409523	     -5.61323088	     46.50609427	      7.82374916	     55.45942566	    132.45643695	     96.97917984	     38.87549694	      0.16228596	     48.42705567	    135.10175235	     80.79531927
      5.48333330	     13.41725564	     -1.31334270	      3.31773366	     -0.18760728	      0.90440883	     -0.17759860	     33.87842332	     -4.62292853	    -10.24026968	      7.15758664	      0.12492345	     -4.87800217	     12.33106566	     -7.49999987	      2.01721894	      3.39400480	     -9.00258770	     27.96166145	      0.48802306	     14.98888643	      3.79687243	     -7.49999987	    -18.20375293	     -6.28613845	     -5.51244186	     46.74052446	      7.73361031	     55.86247413	    132.59584223	     97.03518261	     39.03198698	     -0.10324800	     48.82017426	    135.08921014	     80.82188473
      5.50000000	     13.65614417	     -1.17710541	      3.27594819	     -0.18486265	      0.89778704	     -0.17650133	     34.12528488	     -4.71588482	    -10.36732795	      7.11231378	      0.12413329	     -4.87545979	     12.72341285	     -7.49999987	      2.77596873	      3.31814396	     -9.26752484	     30.05931056	      0.52463394	     16.51441429	      3.67348591	     -7.49999987	    -18.45009380	     -6.50317428	     -5.38953913	     47.25559595	      7.77634375	     56.03358740	    132.44278054	     96.01206320	     39.38063680	     -0.18227897	     49.04900988	    135.19478282	     80.42974057
      5.51666670	     13.88816103	     -0.79174713	      3.15109168	     -0.18461039	      0.89315797	     -0.17659313	     34.26187955	     -4.90890483	     -9.95503996	      6.87245079	      0.11994689	     -5.06116195	     12.62390128	     -7.49999987	      3.54100804	      3.52625221	     -9.66485184	     32.23024358	      0.56252387	     17.58869813	      3.32936797	     -7.49999987	    -18.64642767	     -7.07177494	     -5.27844382	     47.52416096	      7.86479419	     56.07497303	    132.37354331	     95.28412571	     39.85642349	     -0.32710216	     48.83752416	    135.30732573	     79.56784512
